<?xml version="1.0" standalone="no"?>
  <!DOCTYPE svg PUBLIC "-//W3C//DTD SVG 1.1//EN" 
    "http://www.w3.org/Graphics/SVG/1.1/DTD/svg11.dtd">
  <svg width="27.94cm" height="21.59cm"
       xmlns="http://www.w3.org/2000/svg" version="1.1" viewBox="0 0 989.99998 764.99998">
   <g>
     <path d="M 565.86613 382.49999 L 494.99999 453.36613 L 424.13385 382.49999 L 494.99999 311.63385 L 565.86613 382.49999 M 601.29920 382.49999 L 494.99999 488.79920 L 388.70078 382.49999 L 494.99999 276.20078 L 601.29920 382.49999 M 636.73227 382.49999 L 494.99999 524.23227 L 353.26771 382.49999 L 494.99999 240.76771 L 636.73227 382.49999 M 672.16534 382.49999 L 494.99999 559.66534 L 317.83464 382.49999 L 494.99999 205.33464 L 672.16534 382.49999 M 707.59841 382.49999 L 494.99999 595.09841 L 282.40157 382.49999 L 494.99999 169.90157 L 707.59841 382.49999 M 743.03148 382.49999 L 494.99999 630.53148 L 246.96850 382.49999 L 494.99999 134.46850 L 743.03148 382.49999 M 778.46455 382.49999 L 494.99999 665.96455 L 211.53543 382.49999 L 494.99999 99.03543 L 778.46455 382.49999 M 813.89762 382.49999 L 494.99999 701.39762 L 176.10236 382.49999 L 494.99999 63.60236 L 813.89762 382.49999 M 849.33069 382.49999 L 519.98030 711.85038 M 470.01967 711.85038 L 140.66929 382.49999 L 470.01967 53.14961 M 519.98030 53.14961 L 849.33069 382.49999 M 884.76376 382.49999 L 555.41337 711.85038 M 434.58660 711.85038 L 105.23622 382.49999 L 434.58660 53.14961 M 555.41337 53.14961 L 884.76376 382.49999 M 920.19683 382.49999 L 590.84644 711.85038 M 399.15353 711.85038 L 69.80315 382.49999 L 399.15353 53.14961 M 590.84644 53.14961 L 920.19683 382.49999 M 936.85037 401.27952 L 626.27951 711.85038 M 363.72046 711.85038 L 53.14961 401.27952 M 53.14961 363.72046 L 363.72046 53.14961 M 626.27951 53.14961 L 936.85037 363.72046 M 936.85037 436.71259 L 661.71258 711.85038 M 328.28739 711.85038 L 53.14961 436.71259 M 53.14961 328.28739 L 328.28739 53.14961 M 661.71258 53.14961 L 936.85037 328.28739 M 936.85037 472.14566 L 697.14565 711.85038 M 292.85432 711.85038 L 53.14961 472.14566 M 53.14961 292.85432 L 292.85432 53.14961 M 697.14565 53.14961 L 936.85037 292.85432 M 936.85037 507.57873 L 732.57872 711.85038 M 257.42125 711.85038 L 53.14961 507.57873 M 53.14961 257.42125 L 257.42125 53.14961 M 732.57872 53.14961 L 936.85037 257.42125 M 936.85037 543.01180 L 768.01179 711.85038 M 221.98818 711.85038 L 53.14961 543.01180 M 53.14961 221.98818 L 221.98818 53.14961 M 768.01179 53.14961 L 936.85037 221.98818 M 936.85037 578.44487 L 803.44486 711.85038 M 186.55511 711.85038 L 53.14961 578.44487 M 53.14961 186.55511 L 186.55511 53.14961 M 803.44486 53.14961 L 936.85037 186.55511 M 936.85037 613.87794 L 838.87793 711.85038 M 151.12204 711.85038 L 53.14961 613.87794 M 53.14961 151.12204 L 151.12204 53.14961 M 838.87793 53.14961 L 936.85037 151.12204 M 936.85037 649.31101 L 874.31100 711.85038 M 115.68897 711.85038 L 53.14961 649.31101 M 53.14961 115.68897 L 115.68897 53.14961 M 874.31100 53.14961 L 936.85037 115.68897 M 936.85037 684.74408 L 909.74407 711.85038 M 80.25590 711.85038 L 53.14961 684.74408 M 53.14961 80.25590 L 80.25590 53.14961 M 909.74407 53.14961 L 936.85037 80.25590" fill="none" stroke="black" stroke-width="0.03cm" />
   </g>
</svg>