<?xml version="1.0"?><svg  viewBox="0 0 200 200" width="190mm" height="190mm" xmlns="http://www.w3.org/2000/svg"  version="1.2" viewport-fill="#fff">
  <polyline points="40.000,56.800 49.600,40.000 100.000,131.800 90.400,148.600 40.000,56.800"  style="fill:none;stroke:#000;stroke-width:0.1953;opacity:1" stroke-linecap="round"/>
  <polyline points="100.000,131.800 91.000,116.200 114.400,73.600 132.400,73.600 100.000,131.800"  style="fill:none;stroke:#000;stroke-width:0.1953;opacity:1" stroke-linecap="round"/>
  <polyline points="109.000,148.600 90.400,148.600 142.000,56.800 160.000,56.800 109.000,148.600"  style="fill:none;stroke:#000;stroke-width:0.1953;opacity:1" stroke-linecap="round"/>
  <polyline points="85.900,73.600 76.600,56.800 142.000,56.800 150.400,73.600 85.900,73.600"  style="fill:none;stroke:#000;stroke-width:0.1953;opacity:1" stroke-linecap="round"/>
  <polyline points="58.840,56.800 49.600,40.000 150.400,40.000 160.000,56.800 58.840,56.800"  style="fill:none;stroke:#000;stroke-width:0.1953;opacity:1" stroke-linecap="round"/>
  <polyline points="49.600,40.000 67.600,40.000 100.000,100.000 91.000,116.200 49.600,40.000"  style="fill:none;stroke:#000;stroke-width:0.1953;opacity:1" stroke-linecap="round"/>
</svg>