<?xml version="1.0" encoding="UTF-8" standalone="no"?>
<!-- Created with Inkscape (http://www.inkscape.org/) -->

<svg
   width="210mm"
   height="297mm"
   viewBox="0 0 210 297"
   version="1.1"
   id="svg1"
   inkscape:version="1.3.2 (091e20e, 2023-11-25)"
   sodipodi:docname="arch_spiral.svg"
   xmlns:inkscape="http://www.inkscape.org/namespaces/inkscape"
   xmlns:sodipodi="http://sodipodi.sourceforge.net/DTD/sodipodi-0.dtd"
   xmlns="http://www.w3.org/2000/svg"
   xmlns:svg="http://www.w3.org/2000/svg">
  <sodipodi:namedview
     id="namedview1"
     pagecolor="#ffffff"
     bordercolor="#cccccc"
     borderopacity="1"
     inkscape:showpageshadow="0"
     inkscape:pageopacity="1"
     inkscape:pagecheckerboard="0"
     inkscape:deskcolor="#d1d1d1"
     inkscape:document-units="mm"
     inkscape:zoom="0.5946522"
     inkscape:cx="428.82209"
     inkscape:cy="649.11893"
     inkscape:window-width="1920"
     inkscape:window-height="1027"
     inkscape:window-x="1512"
     inkscape:window-y="25"
     inkscape:window-maximized="1"
     inkscape:current-layer="layer1" />
  <defs
     id="defs1" />
  <g
     inkscape:label="Layer 1"
     inkscape:groupmode="layer"
     id="layer1">
    <polyline
       points="101.000,83.000 101.000,83.000 100.585,83.726 100.151,81.559 103.508,82.967 99.379,85.925 98.831,79.427 106.014,82.868 98.231,88.156 97.454,77.329 108.518,82.702 97.142,90.417 96.022,75.268 111.018,82.471 96.112,92.707 94.536,73.243 113.513,82.174 95.142,95.025 92.995,71.257 116.001,81.811 94.233,97.370 91.401,69.310 118.481,81.382 93.385,99.741 89.755,67.403 120.952,80.888 92.598,102.137 88.056,65.538 123.413,80.328 91.873,104.555 86.307,63.715 125.862,79.703 91.211,106.996 84.508,61.936 128.298,79.013 90.611,109.457 82.660,60.201 130.720,78.258 90.075,111.938 80.763,58.511 133.126,77.439 89.603,114.438 78.819,56.868 135.515,76.555 89.195,116.954 76.829,55.273 137.887,75.608 88.851,119.487 74.792,53.725 140.238,74.597 88.572,122.033 72.711,52.227 142.569,73.523 88.359,124.593 70.587,50.779 144.879,72.386 88.211,127.166 68.419,49.381 147.164,71.187 88.128,129.748 66.210,48.036 149.426,69.925 88.112,132.341 63.959,46.743 151.662,68.602 88.162,134.941 61.669,45.504 153.871,67.218 88.278,137.548 59.340,44.320 156.052,65.774 88.461,140.161 56.974,43.190 158.203,64.269 88.711,142.778 54.570,42.117 160.324,62.704 89.027,145.398 52.131,41.100 162.414,61.081 89.411,148.019 49.658,40.141 164.470,59.399 89.862,150.641 47.151,39.240 166.492,57.659 90.380,153.262 44.611,38.398 168.479,55.862 90.965,155.880 42.041,37.615 170.430,54.008 91.618,158.495 39.440,36.893 172.343,52.098 92.337,161.105 36.811,36.232 174.218,50.133 93.124,163.709 34.153,35.632 176.052,48.114 93.978,166.305 31.469,35.095 177.846,46.040 94.900,168.892 28.760,34.620 179.598,43.913 95.888,171.468 26.026,34.209 181.306,41.734 96.943,174.034 23.269,33.861 182.970,39.503 98.065,176.586 20.491,33.578 184.589,37.222 99.254,179.124 17.692,33.360 186.162,34.890 100.509,181.647 14.873,33.208 187.688,32.509 101.830,184.153 12.037,33.121 189.165,30.080 103.218,186.640 9.183,33.101 190.593,27.603 104.671,189.109 6.314,33.148 191.970,25.079 106.189,191.556 3.430,33.261 193.296,22.510"
       style="fill:none;stroke:#000000;stroke-width:0.1953"
       stroke-linecap="round"
       id="polyline1"
       transform="matrix(0.9992785,0,0,0.99927855,6.7458841,42.603819)" />
  </g>
</svg>
